<svg width="1073" height="528" viewBox="0 0 1073 528" fill="none" xmlns="http://www.w3.org/2000/svg">
<circle cx="605" cy="264" r="75" fill="#DAA4DD"/>
<circle cx="804" cy="264" r="75" fill="#9DF871"/>
<circle cx="998" cy="264" r="75" fill="#A09CE3"/>
<path fill-rule="evenodd" clip-rule="evenodd" d="M255 0C114.167 0 0 114.167 0 255V412V439.5C0 488.377 39.6228 528 88.5 528C137.377 528 177 488.377 177 439.5V412.5C177 453.645 216.399 487 265 487C313.601 487 353 453.645 353 412.5V439.5C353 488.377 392.623 528 441.5 528C490.377 528 530 488.377 530 439.5V412V358.015L404.695 262.534L518.822 180.098C486.826 75.8173 389.767 0 275 0H255ZM353 412.5C353 412.333 352.999 412.167 352.998 412H353V412.5ZM177 412.5V412H177.002C177.001 412.167 177 412.333 177 412.5Z" fill="white"/>
</svg>
