<svg width="882" height="1076" viewBox="0 0 882 1076" fill="none" xmlns="http://www.w3.org/2000/svg">
<path fill-rule="evenodd" clip-rule="evenodd" d="M441 0C197.442 0 0 197.442 0 441V891V892H0.00210235C0.429861 993.713 66.0792 1076 147 1076C227.921 1076 293.57 993.713 293.998 892H294.357C299.656 969.667 363.285 1031 441 1031C518.715 1031 582.344 969.667 587.643 892H588.002C588.43 993.713 654.079 1076 735 1076C815.921 1076 881.57 993.713 881.998 892H882V891V441C882 197.442 684.558 0 441 0Z" fill="white"/>
</svg>
